<?xml version="1.0" encoding="UTF-8"?>
<svg width="76px" height="66px" viewBox="0 0 76 66" version="1.1" xmlns="http://www.w3.org/2000/svg" xmlns:xlink="http://www.w3.org/1999/xlink">
    <title>ICONS_ic_eye - private</title>
    <g id="Page-1" stroke="none" stroke-width="1" fill="none" fill-rule="evenodd">
        <g id="ICONS_ic_eye---private" transform="translate(0.410469, 0.814447)" fill="#02285c" fill-rule="nonzero">
            <path d="M75.0195306,31.0855526 C70.4393303,25.0752179 64.9341746,19.8299622 58.7095306,15.5455526 L69.3495306,4.89555262 C70.1910513,4.29315489 70.6141982,3.26274707 70.4389137,2.24278853 C70.2636293,1.22282999 69.5207591,0.39280744 68.5264094,0.105912251 C67.5320598,-0.180982939 66.4612109,0.125735478 65.7695306,0.895552616 L65.6095306,1.04555262 L65.5895306,1.08555262 L53.9095306,12.7055526 C48.9598712,9.9769858 43.4204047,8.49430333 37.7695306,8.38555262 C17.2595306,8.38555262 1.18953059,30.1855526 0.509530593,31.0855526 C-0.169843531,32.0330199 -0.169843531,33.3080853 0.509530593,34.2555526 C5.09865135,40.2613883 10.606322,45.5058247 16.8295306,49.7955526 L6.17953059,60.4355526 C5.17587955,61.4831451 5.17950248,63.1366171 6.18773463,64.1798013 C7.19596678,65.2229855 8.84835569,65.2829337 9.92953059,64.3155526 L9.99953059,64.2555526 L21.5895306,52.6355526 C26.5417332,55.3565237 32.0801165,56.8354847 37.7295306,56.9455526 C58.2295306,56.9455526 74.3095306,35.1855526 74.9795306,34.2555526 C75.6802517,33.3198294 75.6964179,32.0386589 75.0195306,31.0855526 Z M20.7495306,45.8855526 C15.2565642,42.216736 10.3308985,37.7627482 6.12953059,32.6655526 C10.1295306,27.8555526 22.9795306,13.7855526 37.7695306,13.7855526 C41.9777814,13.8821902 46.112821,14.90656 49.8795306,16.7855526 L45.1995306,21.4755526 C39.8661369,17.9711813 32.8055884,18.690305 28.28823,23.1979851 C23.7708716,27.7056652 23.0366062,34.7646551 26.5295306,40.1055526 L20.7495306,45.8855526 Z M45.0495306,29.1855526 C45.5816116,30.264959 45.858732,31.4521293 45.8595306,32.6555526 C45.8595306,34.801154 45.0071938,36.8588772 43.4900245,38.3760465 C41.9728552,39.8932158 39.915132,40.7455526 37.7695306,40.7455526 L37.7695306,40.7455526 C36.5662305,40.7436894 35.3792978,40.4666244 34.2995306,39.9355526 L45.0495306,29.1855526 Z M30.4795306,36.1855526 C29.2731937,33.6831707 29.440521,30.7359391 30.9223357,28.3861754 C32.4041503,26.0364117 34.9915709,24.6153461 37.7695306,24.625498 L37.7695306,24.625498 C38.9728307,24.6274158 40.1597634,24.9044808 41.2395306,25.4355526 L30.4795306,36.1855526 Z M37.7695306,51.6055526 C33.5613236,51.5085871 29.4263545,50.4842348 25.6595306,48.6055526 L30.3395306,43.9255526 C35.6840258,47.4853965 42.798309,46.7775531 47.3365888,42.2344117 C51.8748686,37.6912703 52.5750946,30.5762334 49.0095306,25.2355526 L54.7895306,19.4555526 C60.282248,23.1207462 65.207956,27.5714031 69.4095306,32.6655526 C65.4295306,37.4755526 52.5895306,51.5555526 37.7695306,51.5555526 L37.7695306,51.6055526 Z" id="icon_eye_-_private"></path>
        </g>
    </g>
</svg>