<?xml version="1.0" encoding="UTF-8"?>
<svg width="77px" height="49px" viewBox="0 0 77 49" version="1.1" xmlns="http://www.w3.org/2000/svg" xmlns:xlink="http://www.w3.org/1999/xlink">
    <title>ICONS_ic_eye - view</title>
    <g id="Page-1" stroke="none" stroke-width="1" fill="none" fill-rule="evenodd">
        <g id="ICONS_ic_eye---view" transform="translate(0.809776, 0.330000)" fill="#313131" fill-rule="nonzero">
            <path d="M75.0602239,22.6 C74.3902239,21.68 58.3102239,0 37.7702239,0 C17.2302239,0 1.19022389,21.67 0.480223893,22.6 C-0.160074631,23.4754127 -0.160074631,24.6645873 0.480223893,25.54 C1.15022389,26.46 17.2302239,48.14 37.7702239,48.14 C58.3102239,48.14 74.3902239,26.46 75.0602239,25.54 C75.7005224,24.6645873 75.7005224,23.4754127 75.0602239,22.6 Z M37.7702239,43.16 C22.6402239,43.16 9.54022389,28.77 5.66022389,24.07 C9.53022389,19.36 22.6602239,4.98 37.7702239,4.98 C52.8802239,4.98 66.0002239,19.36 69.8802239,24.07 C66.0002239,28.78 52.9302239,43.16 37.7702239,43.16 Z" id="Trazado_3489"></path>
            <path d="M37.7702239,9.13 C31.727558,9.13 26.2798918,12.7700141 23.9674637,18.3527095 C21.6550355,23.9354049 22.9332385,30.3613653 27.2060486,34.6341753 C31.4788586,38.9069854 37.904819,40.1851884 43.4875144,37.8727602 C49.0702098,35.5603321 52.7102239,30.1126659 52.7102239,24.07 L52.7102239,24.07 C52.6773394,15.8325255 46.0076984,9.16288452 37.7702239,9.13 Z M37.7702239,34.03 C32.2473764,34.03 27.7702239,29.5528475 27.7702239,24.03 C27.7702239,18.5071525 32.2473764,14.03 37.7702239,14.03 C43.2930714,14.03 47.7702239,18.5071525 47.7702239,24.03 C47.7702239,29.5528475 43.2930714,34.03 37.7702239,34.03 L37.7702239,34.03 Z" id="Trazado_3490"></path>
        </g>
    </g>
</svg>