<?xml version="1.0" encoding="UTF-8"?>
<svg width="36px" height="51px" viewBox="0 0 36 51" version="1.1" xmlns="http://www.w3.org/2000/svg" xmlns:xlink="http://www.w3.org/1999/xlink">
    <title>ICONS_ic_candado-cerrado</title>
    <g id="Page-1" stroke="none" stroke-width="1" fill="none" fill-rule="evenodd">
        <g id="ICONS_ic_candado-cerrado" transform="translate(0.670000, 0.610000)" fill="#313131" fill-rule="nonzero">
            <path d="M32.3967193,20.0334143 L9.97873633,20.0334143 L9.97873633,12.7430134 C9.91348073,9.07321714 12.4086428,5.85161552 15.9781288,4.99696233 C17.9755958,4.64063736 20.0325906,5.09845798 21.6903767,6.26832425 C23.3481628,7.43819051 24.4688648,9.22280657 24.8025516,11.2241798 C24.8806149,11.6501506 24.9212721,12.0821327 24.9240583,12.5151883 L24.9240583,21.6281896 L27.9617254,21.6281896 L29.936209,22.4331713 L29.936209,12.545565 C29.936209,5.61684078 24.3193682,0 17.390644,0 C16.9957473,0 16.6008505,0 16.2059538,0 C9.7386958,0.917145399 4.96241284,6.50032084 5.05771567,13.0315917 L5.05771567,20.018226 L2.490887,20.018226 C1.1127549,20.0265785 0,21.1461439 0,22.5243013 L0,47.509113 C0.0884582317,48.8464394 1.15356058,49.9115418 2.490887,50 L32.3967193,50 C33.7714774,49.9918177 34.8862554,48.8837959 34.9027947,47.509113 L34.9027947,22.5243013 C34.9720091,21.2263094 33.9825775,20.1148931 32.6852977,20.0334143 L32.3967193,20.0334143 Z M19.9119077,36.7405832 L19.9119077,40.082017 C19.985185,41.0211414 19.5256488,41.9220367 18.7223698,42.4140398 C17.9190909,42.906043 16.9077621,42.906043 16.1044831,42.4140398 C15.3012042,41.9220367 14.8416679,41.0211414 14.9149453,40.082017 L14.9149453,36.7709599 C13.4386541,35.8403925 12.5263519,34.2324598 12.4848117,32.4878493 C12.4928434,31.1746494 13.0222255,29.9184281 13.9564948,28.9955524 C14.890764,28.0726767 16.153386,27.5587475 17.4665857,27.5667348 C17.8921629,27.5690982 18.3157409,27.625235 18.7272175,27.7339004 C20.5235955,28.2830367 21.9295999,29.6890412 22.4787363,31.4854192 C22.9211627,33.6096637 21.8973203,35.7690405 19.972661,36.7709599 L19.9119077,36.7405832 Z" id="ic_candado-cerrado"></path>
        </g>
    </g>
</svg>