<svg width="36" height="51" viewBox="0 0 36 51" xmlns="http://www.w3.org/2000/svg"><path d="M33.067 20.643H10.649v-7.29a7.822 7.822 0 0 1 6-7.746 7.594 7.594 0 0 1 8.824 6.227c.078.426.118.858.121 1.291v9.113h3.038l1.974.805v-9.887C30.606 6.226 24.99.61 18.061.61h-1.185A12.97 12.97 0 0 0 5.728 13.642v6.986H3.16A2.506 2.506 0 0 0 .67 23.134V48.12a2.673 2.673 0 0 0 2.49 2.491h29.907a2.521 2.521 0 0 0 2.506-2.49V23.133a2.37 2.37 0 0 0-2.218-2.49h-.288ZM20.582 37.351v3.341a2.506 2.506 0 1 1-4.997 0v-3.311a5.21 5.21 0 0 1-2.43-4.283 4.951 4.951 0 0 1 4.982-4.921c.425.002.849.058 1.26.167a5.65 5.65 0 0 1 3.752 3.751 4.845 4.845 0 0 1-2.506 5.286l-.061-.03Z" fill="#313131" fill-rule="nonzero"/></svg>