<svg width="77" height="49" viewBox="0 0 77 49" xmlns="http://www.w3.org/2000/svg"><path d="M38.58 9.46A14.94 14.94 0 1 0 53.52 24.4c-.033-8.237-6.703-14.907-14.94-14.94Zm0-9.13c20.54 0 36.62 21.68 37.29 22.6a2.49 2.49 0 0 1 0 2.94c-.67.92-16.75 22.6-37.29 22.6S1.96 26.79 1.29 25.87a2.49 2.49 0 0 1 0-2.94C2 22 18.04.33 38.58.33Zm0 4.98c-15.11 0-28.24 14.38-32.11 19.09 3.88 4.7 16.98 19.09 32.11 19.09 15.16 0 28.23-14.38 32.11-19.09-3.88-4.71-17-19.09-32.11-19.09Zm0 9.05c5.523 0 10 4.477 10 10s-4.477 10-10 10-10-4.477-10-10 4.477-10 10-10Z" fill="#02285C" fill-rule="nonzero"/></svg>