<svg width="24" height="34" viewBox="0 0 24 34" xmlns="http://www.w3.org/2000/svg"><path d="M21.53 13.8H6.73V9a5.15 5.15 0 0 1 4-5.1A5 5 0 0 1 16.52 8c.051.28.078.565.08.85a1.65 1.65 0 1 0 3.29 0A8.25 8.25 0 0 0 11.63.6h-.78a8.53 8.53 0 0 0-7.4 8.55v4.6H1.8A1.65 1.65 0 0 0 .16 15.4v16.49a1.76 1.76 0 0 0 1.64 1.64h19.73a1.66 1.66 0 0 0 1.65-1.64V15.44a1.56 1.56 0 0 0-1.46-1.64h-.19Zm-8.22 11V27A1.655 1.655 0 1 1 10 27v-2.18A3.4 3.4 0 0 1 8.38 22a3.26 3.26 0 0 1 3.28-3.24c.28.001.56.038.83.11A3.72 3.72 0 0 1 15 21.36a3.21 3.21 0 0 1-1.69 3.46v-.02Z" fill="#313131" fill-rule="nonzero"/></svg>