<svg width="57" height="50" viewBox="0 0 57 50" xmlns="http://www.w3.org/2000/svg"><path d="M56.31 43.81 31.46 2.6a3.47 3.47 0 0 0-5.94 0L.67 43.81a3.48 3.48 0 0 0 1.18 4.77c.543.32 1.16.491 1.79.5h49.7a3.47 3.47 0 0 0 3-5.27h-.03Zm-27.8-28.63a2.35 2.35 0 0 1 2.62 2c.005.06.005.12 0 .18 0 4.36-.51 10.61-.51 15 0 1.13-1.24 1.61-2.12 1.61-1.17 0-2.16-.48-2.16-1.61 0-4.35-.51-10.61-.51-15 0-1.42 1.17-2.23 2.67-2.23l.01.05Zm0 27a2.82 2.82 0 1 1 2.79-2.86 2.86 2.86 0 0 1-2.79 2.82v.04Z" fill="#B92525" fill-rule="nonzero"/></svg>